<?xml version="1.0" encoding="UTF-8"?>
<!DOCTYPE svg PUBLIC "-//W3C//DTD SVG 1.1//EN" "http://www.w3.org/Graphics/SVG/1.1/DTD/svg11.dtd">
<!-- Creator: CorelDRAW X7 -->
<svg xmlns="http://www.w3.org/2000/svg" xml:space="preserve" width="1.91079in" height="2.58953in" version="1.1" style="shape-rendering:geometricPrecision; text-rendering:geometricPrecision; image-rendering:optimizeQuality; fill-rule:evenodd; clip-rule:evenodd"
viewBox="0 0 266 360"
 xmlns:xlink="http://www.w3.org/1999/xlink">
 <defs>
  <style type="text/css">
   <![CDATA[
    .fil7 {fill:#373435;fill-rule:nonzero}
    .fil1 {fill:#00ACC1;fill-rule:nonzero}
    .fil5 {fill:#26C6DA;fill-rule:nonzero}
    .fil6 {fill:#26C6DA;fill-rule:nonzero}
    .fil0 {fill:#424242;fill-rule:nonzero}
    .fil2 {fill:#BCBCBC;fill-rule:nonzero}
    .fil3 {fill:#DFDFDF;fill-rule:nonzero}
    .fil4 {fill:#EDEDED;fill-rule:nonzero}
   ]]>
  </style>
 </defs>
 <g id="Layer_x0020_1">
  <metadata id="CorelCorpID_0Corel-Layer"/>
  <g id="_2360918837808">
   <g>
    <path class="fil0" d="M198 42l-130 0c-11,0 -21,10 -21,21l0 180c0,12 10,21 21,21l130 0c11,0 21,-9 21,-21l0 -180c0,-11 -10,-21 -21,-21z"/>
    <g>
     <polygon class="fil1" points="209,234 57,234 57,72 209,72 "/>
    </g>
    <path class="fil2" d="M142 249c0,5 -4,9 -9,9 -5,0 -9,-4 -9,-9 0,-5 4,-9 9,-9 5,0 9,4 9,9z"/>
    <g>
     <polygon class="fil3" points="193,210 57,234 57,72 193,48 "/>
    </g>
    <g>
     <polygon class="fil4" points="57,72 181,23 181,186 57,234 "/>
    </g>
    <g>
     <polygon class="fil5" points="157,163 57,234 57,72 157,0 "/>
    </g>
   </g>
   <g>
    <path class="fil6" d="M19 335l18 0 0 23c-5,2 -10,2 -16,2 -7,0 -12,-1 -16,-5 -3,-4 -5,-10 -5,-17 0,-7 2,-12 6,-16 4,-4 9,-6 17,-6 2,0 5,1 7,1 3,1 5,1 6,2l-3 9c-3,-1 -7,-2 -10,-2 -4,0 -6,1 -8,3 -2,2 -3,5 -3,10 0,4 1,7 3,9 1,2 4,3 7,3 1,0 3,0 5,-1l0 -6 -8 0 0 -9z"/>
    <path id="1" class="fil6" d="M86 338c0,8 -1,13 -5,17 -3,4 -9,5 -16,5 -6,0 -11,-1 -15,-5 -4,-4 -5,-9 -5,-17 0,-7 1,-12 5,-16 4,-4 9,-6 16,-6 6,0 12,2 15,6 4,4 5,9 5,16zm-29 0c0,9 3,13 8,13 3,0 6,-1 7,-3 1,-2 2,-5 2,-10 0,-4 -1,-7 -2,-9 -1,-2 -4,-3 -6,-3 -6,0 -9,4 -9,12z"/>
    <path class="fil7" d="M124 344l0 16 -12 0 0 -43 14 0c12,0 18,4 18,13 0,5 -3,8 -8,11l13 19 -13 0 -9 -16 -3 0zm0 -9l2 0c4,0 6,-1 6,-5 0,-3 -2,-4 -6,-4l-2 0 0 9z"/>
    <polygon id="1" class="fil7" points="178,360 153,360 153,317 178,317 178,326 164,326 164,333 177,333 177,342 164,342 164,350 178,350 "/>
    <path id="2" class="fil7" d="M212 360l-2 -8 -14 0 -2 8 -13 0 14 -43 16 0 14 43 -13 0zm-4 -18l-2 -7c-1,-1 -1,-3 -2,-6 0,-2 -1,-4 -1,-5 0,1 -1,2 -1,5 -1,2 -2,7 -4,13l10 0z"/>
    <path id="3" class="fil7" d="M266 337c0,8 -2,13 -6,17 -4,4 -9,6 -17,6l-13 0 0 -43 14 0c7,0 13,2 16,5 4,4 6,9 6,15zm-12 1c0,-4 -1,-7 -2,-9 -2,-2 -4,-3 -8,-3l-3 0 0 24 3 0c3,0 6,-1 7,-3 2,-2 3,-5 3,-9z"/>
   </g>
  </g>
 </g>
</svg>
